<?xml version="1.0" standalone="no"?><!DOCTYPE svg PUBLIC "-//W3C//DTD SVG 1.1//EN" "http://www.w3.org/Graphics/SVG/1.1/DTD/svg11.dtd"><svg t="1576382114599" class="icon" viewBox="0 0 1024 1024" version="1.1" xmlns="http://www.w3.org/2000/svg" p-id="1405" xmlns:xlink="http://www.w3.org/1999/xlink" width="64" height="64"><defs><style type="text/css"></style></defs><path d="M990.122347 69.033708h-191.7603a31.96005 31.96005 0 0 0 0 63.9201H959.440699v127.840199H64.559301v-127.840199h154.686642a31.96005 31.96005 0 0 0 0-63.9201H32.599251a31.96005 31.96005 0 0 0-31.96005 31.96005v891.046192a31.96005 31.96005 0 0 0 31.96005 31.96005h958.801498a31.96005 31.96005 0 0 0 31.96005-31.96005V100.993758a31.96005 31.96005 0 0 0-33.238452-31.96005zM64.559301 958.801498V319.600499h894.881398v639.200999z" fill="#1296db" p-id="1406"></path><path d="M476.843945 132.953808h63.9201a31.96005 31.96005 0 0 0 0-63.9201h-63.9201a31.96005 31.96005 0 0 0 0 63.9201zM351.560549 191.7603a31.96005 31.96005 0 0 0 31.96005-31.96005v-127.8402a31.96005 31.96005 0 0 0-63.9201 0v127.8402a31.96005 31.96005 0 0 0 31.96005 31.96005zM671.161049 191.7603a31.96005 31.96005 0 0 0 31.96005-31.96005v-127.8402a31.96005 31.96005 0 0 0-63.9201 0v127.8402a31.96005 31.96005 0 0 0 31.96005 31.96005zM734.441948 514.556804h-447.4407a31.96005 31.96005 0 0 0 0 63.9201h447.4407a31.96005 31.96005 0 0 0 0-63.9201zM734.441948 703.121099h-447.4407a31.96005 31.96005 0 0 0 0 63.9201h447.4407a31.96005 31.96005 0 0 0 0-63.9201z" fill="#1296db" p-id="1407"></path></svg>