<?xml version="1.0" standalone="no"?><!DOCTYPE svg PUBLIC "-//W3C//DTD SVG 1.1//EN" "http://www.w3.org/Graphics/SVG/1.1/DTD/svg11.dtd"><svg t="1549865093839" class="icon" style="" viewBox="0 0 1024 1024" version="1.1" xmlns="http://www.w3.org/2000/svg" p-id="2709" xmlns:xlink="http://www.w3.org/1999/xlink" width="200" height="200"><defs><style type="text/css"></style></defs><path d="M743.4 613.4v85.2c0 35.6-12.6 66-37.9 91.3-25.3 25.3-55.7 37.9-91.3 37.9h-373c-35.6 0-66-12.6-91.3-37.9S112 734.2 112 698.6V325.5c0-35.6 12.6-66 37.9-91.3s55.7-37.9 91.3-37.9h373.1c18.9 0 36.3 3.8 52.4 11.2 4.5 2.1 7.2 5.5 8.1 10.3 0.9 5.1-0.5 9.4-4.1 13l-21.9 22c-4.1 4.1-8.9 5.3-14.4 3.6-6.9-1.7-13.5-2.8-20.2-2.8h-373c-19.7 0-36.6 7.1-50.7 21-14 14.2-21 31-21 50.8v373.1c0 19.7 7 36.6 21 50.7 14 14 31 21 50.7 21h373.1c19.7 0 36.6-7 50.7-21 14-14 21-31 21-50.7V642c0-3.9 1.3-7.2 4.1-9.9l28.7-28.7c4.5-4.5 9.7-5.5 15.7-3.1 6.1 2.4 8.9 6.8 8.9 13.1z m-42.9-331l129.1 129.1-301.4 301.4H399.1V583.8l301.4-301.4zM510.3 669.9l52.1-52.1-68.2-68.1-52.1 52.1v25h43v43l25.2 0.1z m197.3-323c-4.8-4.8-9.7-4.6-14.8 0.5l-157 156.9c-5.1 5.1-5.2 10-0.5 14.8 4.8 4.8 9.7 4.6 14.8-0.5l157-157c5.2-4.9 5.4-9.9 0.5-14.7z m192-5.3l-41.2 41.2-129.2-129.1 41.2-41.2c8.4-8.4 18.6-12.5 30.5-12.5 12 0 22.1 4.1 30.5 12.5l68.2 68.2c8.4 8.4 12.5 18.6 12.5 30.5 0 11.9-4.2 22.1-12.5 30.4z" p-id="2710" fill="#333333"></path></svg>