<?xml version="1.0" standalone="no"?><!DOCTYPE svg PUBLIC "-//W3C//DTD SVG 1.1//EN" "http://www.w3.org/Graphics/SVG/1.1/DTD/svg11.dtd"><svg t="1549863049790" class="icon" style="" viewBox="0 0 1024 1024" version="1.1" xmlns="http://www.w3.org/2000/svg" p-id="2447" xmlns:xlink="http://www.w3.org/1999/xlink" width="200" height="200"><defs><style type="text/css"></style></defs><path d="M791.04 411.392c0-33.664 15.744-63.744 40.192-83.2 11.648-9.216 14.464-25.728 6.528-38.272-15.104-23.936-32.64-46.208-52.352-66.304-10.496-10.752-27.52-11.392-39.296-2.048-19.072 15.36-43.648 24.32-70.4 23.296-54.016-1.92-98.304-44.8-102.144-98.688-0.256-2.816-0.256-5.504-0.256-8.32 0.128-15.104-11.52-27.52-26.496-29.056-13.184-1.408-26.624-2.048-40.064-2.048-14.208 0-28.16 0.768-41.856 2.176-14.976 1.664-25.984 14.464-25.984 29.44v0.256c0 58.624-47.616 106.24-106.24 106.24-24.96 0-47.872-8.576-66.048-23.04-11.648-9.344-28.544-8.448-39.04 2.304-19.712 20.096-37.248 42.368-52.224 66.432-7.808 12.416-4.992 28.8 6.4 38.144 24.32 19.456 39.68 49.28 39.68 82.688 0 49.664-34.176 91.392-80.256 103.04-14.208 3.584-23.424 17.28-21.632 31.872 3.456 27.008 9.6 53.248 18.176 78.208 4.864 14.336 19.84 22.528 34.56 19.072 9.472-2.304 19.328-3.328 29.568-2.816 55.808 2.432 100.48 48.512 101.504 104.32 0.256 17.152-3.456 33.408-10.496 47.872-6.528 13.696-1.792 30.08 11.136 37.888 22.912 13.952 47.36 25.6 72.96 34.688 13.696 4.864 28.8-1.152 35.456-13.952 17.664-34.048 53.248-57.344 94.336-57.344s76.672 23.296 94.336 57.344c6.656 12.8 21.888 18.816 35.584 13.952 27.008-9.472 52.608-21.888 76.416-36.864 12.544-7.808 17.152-23.808 10.88-37.12-6.784-14.464-10.24-30.72-9.856-47.744 1.536-55.68 46.848-101.248 102.528-103.168 8.832-0.256 17.536 0.512 25.728 2.304 14.464 3.072 28.928-5.248 33.792-19.328 8.448-24.704 14.464-50.432 17.792-77.056 1.792-14.592-7.552-28.416-21.888-31.872-46.336-11.264-81.024-53.248-81.024-103.296zM508.288 645.12c-86.656 0.768-156.928-69.632-156.16-156.16 0.768-84.096 69.376-152.832 153.472-153.472 86.656-0.768 156.928 69.632 156.16 156.16-0.768 83.968-69.504 152.704-153.472 153.472z" fill="#ffffff" p-id="2448"></path></svg>